<svg xmlns="http://www.w3.org/2000/svg" version="1.1" xmlns:xlink="http://www.w3.org/1999/xlink" width="32" height="32" viewBox="0 0 300 300"><g><path fill="#616a7f" d="M247.47 300H52.53C23.52 300 0 276.48 0 247.47V52.53C0 23.52 23.52 0 52.53 0h194.94C276.48 0 300 23.52 300 52.53v194.94c0 29.01-23.52 52.53-52.53 52.53z"/><path fill="#465069" d="M247.47 283.78H52.53C23.52 283.78 0 260.26 0 231.25V52.53C0 23.52 23.52 0 52.53 0h194.94C276.48 0 300 23.52 300 52.53v178.72c0 29.01-23.52 52.53-52.53 52.53z"/><path fill="#ffffff" d="M85.92 213.11c-1.18-4.72 11.8-42.96 14.63-42.01 4.96 1.65 24.31 14.63 43.66 14.63 10.62 0 15.81-2.6 15.81-7.79 0-4.72-2.83-8.73-24.31-12.75-30.45-5.67-48.86-19.83-48.86-54.05 0-28.09 22.89-52.16 65.38-52.16 25.73 0 48.86 6.14 58.06 13.22 3.54 2.6-12.98 40.36-15.58 40.6-1.65.47-20.53-9.21-41.54-9.21-10.39 0-14.63 2.83-14.63 6.84 0 5.9 3.78 7.08 23.84 11.33 27.62 5.9 53.34 17.47 53.34 53.11 0 23.37-18.41 53.1-69.39 53.1-26.42.01-50.97-8.96-60.41-14.86z"/></g></svg>
