<svg xmlns="http://www.w3.org/2000/svg" version="1.1" xmlns:xlink="http://www.w3.org/1999/xlink" width="32" height="32" viewBox="0 0 300 300"><g><path fill="#616a7f" d="M247.47 300H52.53C23.52 300 0 276.48 0 247.47V52.53C0 23.52 23.52 0 52.53 0h194.94C276.48 0 300 23.52 300 52.53v194.94c0 29.01-23.52 52.53-52.53 52.53z"/><path fill="#465069" d="M247.47 283.78H52.53C23.52 283.78 0 260.26 0 231.25V52.53C0 23.52 23.52 0 52.53 0h194.94C276.48 0 300 23.52 300 52.53v178.72c0 29.01-23.52 52.53-52.53 52.53z"/><text x="150" y="220" text-anchor="middle" font-family="Arial, Helvetica, sans-serif" font-weight="900" font-size="240" fill="#ffffff">$</text></g></svg>
